<svg width="355" height="264" viewBox="0 0 355 264" fill="none" xmlns="http://www.w3.org/2000/svg">
<path d="M162.039 263.169C118.851 262.505 75.885 261.619 32.6971 260.733C25.8313 260.512 18.9656 260.29 12.3213 259.626C10.1065 259.404 7.89175 258.961 5.67699 258.076C3.46222 257.19 2.35484 255.418 1.69041 252.982C-0.302879 245.451 -0.0814025 237.7 0.140074 229.948C0.804504 177.68 3.01927 125.633 6.11994 73.3641C7.22732 57.8607 8.77766 42.1359 10.5495 26.4111C10.9924 21.0956 12.5428 16.0017 13.4287 10.6862C13.8716 8.47148 15.422 6.92114 17.4152 6.03524C19.8515 5.14933 22.5092 4.04195 25.1669 3.82047C35.5763 2.93456 45.9857 1.82718 56.3951 1.38423C89.8381 0.276846 122.838 -0.166107 156.06 0.0553691C187.066 0.276846 218.073 0.941275 248.858 1.6057C271.892 2.04866 294.925 2.71309 317.959 3.37752C326.153 3.59899 334.348 4.4849 342.543 5.14933C343.207 5.14933 344.093 5.37081 344.758 5.37081C349.409 6.03524 352.509 8.69295 353.395 13.344C353.838 15.5587 354.06 17.7735 354.281 20.2097C354.281 26.4111 354.502 32.6124 354.281 38.8138C353.395 67.3842 352.288 95.9547 351.402 124.304C350.516 156.861 350.294 189.196 351.402 221.753C351.623 227.733 351.845 233.492 351.623 239.471C351.623 243.458 351.18 247.666 350.737 251.653C350.294 256.304 347.637 259.183 343.207 260.29C339.442 261.176 335.456 262.062 331.69 262.284C320.395 262.948 309.321 263.612 298.026 263.834C281.415 264.055 264.583 264.055 247.972 263.834C219.402 263.612 190.831 262.948 162.261 262.505C162.039 262.948 162.039 262.948 162.039 263.169ZM255.502 99.7198C253.952 100.827 252.845 101.935 251.516 103.042C231.14 119.874 210.764 136.706 190.167 153.317C186.845 155.975 182.858 158.411 179.315 160.626C177.764 161.733 175.771 162.176 173.778 162.619C170.898 163.284 168.462 162.398 166.469 160.183C165.14 158.633 163.59 157.082 162.039 155.753C158.717 152.874 155.174 150.216 152.294 146.894C138.12 132.277 122.838 118.767 107.556 105.478C106.67 104.814 106.006 104.149 105.12 103.485C104.234 104.149 103.57 104.814 102.905 105.257C95.5964 112.565 87.4018 118.988 79.4287 125.411C66.1401 136.263 52.8515 147.116 39.7844 158.19C33.583 163.505 27.8246 169.485 20.073 173.25C19.1871 197.169 17.8582 220.646 14.979 244.565C16.9723 244.565 18.5226 244.565 20.2944 244.344C33.3616 243.901 46.4287 243.458 59.4958 243.458C89.6166 243.237 119.516 243.458 149.637 243.458C174.885 243.458 200.355 243.458 225.603 243.458C246.2 243.458 266.798 243.901 287.617 244.122C301.791 244.344 316.187 243.901 330.362 245.23C331.247 245.23 332.133 245.23 333.019 245.008C333.241 244.344 333.241 243.901 333.241 243.458C333.019 228.841 332.576 214.002 332.355 199.384C332.133 192.74 332.133 186.096 332.133 179.451C332.133 177.237 331.69 175.686 329.697 174.357C327.704 173.029 326.153 171.257 324.382 169.485C315.744 160.404 307.549 151.102 298.69 142.465C284.516 128.069 270.12 114.116 255.502 99.7198ZM172.67 143.129C223.167 102.378 273.221 61.8473 323.717 21.0956C322.831 20.8742 322.61 20.6527 322.167 20.6527C300.241 21.5386 278.536 21.0956 256.61 20.4312C248.194 20.2097 239.999 19.9883 231.583 19.9883C183.301 19.7668 135.019 19.3238 86.7374 19.1023C74.5562 19.1023 62.375 18.8809 50.4152 18.8809C47.979 18.8809 45.3213 18.6594 42.4421 19.5453C43.5495 20.6527 44.2139 21.5386 45.0998 22.4245C52.4085 29.5117 59.7173 36.599 67.026 43.6862C86.9589 63.3977 107.778 82.0017 128.596 100.384C143.435 113.451 157.61 126.961 171.12 141.357C171.563 142.022 172.227 142.465 172.67 143.129ZM94.7105 94.4044C70.5696 71.3708 46.4287 48.5587 24.5025 22.4245C24.5025 24.4178 24.281 25.3037 24.281 26.4111C23.8381 48.1158 23.3951 69.8205 22.7307 91.5252C22.2877 110.129 21.4018 128.733 20.9589 147.559C20.9589 149.109 20.2944 150.881 21.6233 152.21C45.9857 132.72 70.3481 113.673 94.7105 94.4044ZM339.885 24.1963C315.744 47.2299 291.825 68.9346 267.019 90.4178C268.127 91.3037 268.791 92.1896 269.677 92.854C277.65 99.7198 286.066 106.586 293.596 113.894C305.335 124.968 316.63 136.485 328.147 147.559C329.254 148.666 330.14 150.216 332.133 150.659C333.241 108.357 334.57 66.4983 339.885 24.1963Z" fill="white"/>
</svg>
