<svg width="716" height="716" viewBox="0 0 716 716" fill="none" xmlns="http://www.w3.org/2000/svg">
<path d="M254.33 208.335C285.903 178.377 349.796 171.914 376.522 218.777C383.483 230.959 387.834 245.13 390.444 258.927C399.767 309.52 368.939 378.385 325.557 406.23C274.591 438.922 219.648 415.801 207.839 356.383C205.85 346.314 189.442 269.866 254.33 208.335ZM230.836 327.42C231.209 331.646 231.209 339.105 232.452 346.439C241.278 396.161 280.558 411.575 320.709 381.244C356.384 354.394 377.268 292.117 365.334 249.232C359.243 227.229 345.819 211.318 323.444 208.211C299.95 204.979 277.326 213.68 262.658 232.077C241.775 258.555 231.582 290.128 230.836 327.42Z" fill="white"/>
<path d="M500.952 174.028C523.575 155.755 556.641 149.788 583.242 159.857C599.526 165.948 609.968 177.633 617.675 192.55C641.168 238.17 625.257 329.534 587.593 364.464C544.334 404.615 483.922 394.173 457.693 340.846C449.738 324.313 418.661 240.283 500.952 174.028ZM609.719 255.075C608.476 222.383 605.244 213.682 592.813 193.917C584.734 183.102 574.665 178.503 561.24 177.633C542.594 176.514 521.586 189.939 508.907 202.245C481.56 228.847 467.265 263.404 472.61 303.057C477.085 336.371 500.827 363.221 526.683 366.204C555.025 369.561 582.869 348.802 595.673 316.358C605.12 292.491 609.719 273.845 609.719 255.075Z" fill="white"/>
<path d="M84.155 560.745C80.923 560.745 76.1994 563.106 73.9619 553.784C72.7189 545.082 80.1772 543.963 84.2793 542.969C112.497 536.008 140.838 529.295 169.429 524.199C277.326 505.056 385.347 486.783 493.245 467.64C537.497 459.809 581.377 450.486 625.63 442.53C630.602 441.66 641.044 439.671 641.79 446.632C643.281 455.955 634.829 458.068 630.229 459.311C586.225 470.623 542.345 482.929 497.844 491.009C372.42 513.633 246.622 534.268 121.074 555.648C109.886 557.513 98.5744 558.756 84.155 560.745Z" fill="white"/>
<path d="M78.4369 460.924C90.3703 393.426 101.931 327.793 113.615 262.16C116.972 243.638 120.577 225.241 124.554 206.968C126.295 198.888 128.159 188.819 139.595 190.684C151.901 192.673 150.534 202.617 148.918 211.816C134.872 291.123 120.825 370.43 106.779 449.612C105.784 454.958 104.292 460.427 102.179 465.026C98.6987 472.733 94.2237 475.468 88.1328 475.468C85.0251 474.349 77.0696 473.355 78.4369 460.924Z" fill="white"/>
</svg>
